<svg width="22" height="22" viewBox="0 0 22 22" fill="none" xmlns="http://www.w3.org/2000/svg">
<path d="M10.2895 19.3883V17.4404C9.35757 17.2876 8.60514 16.9362 8.03223 16.3862C7.45931 15.8362 7.05827 15.1411 6.8291 14.3008L8.38743 13.682C8.63188 14.4459 8.99855 14.9997 9.48743 15.3435C9.97632 15.6872 10.5416 15.8591 11.1833 15.8591C11.886 15.8591 12.4551 15.6911 12.8906 15.3549C13.326 15.0188 13.5437 14.5605 13.5437 13.9799C13.5437 13.3536 13.3336 12.857 12.9135 12.4904C12.4933 12.1237 11.7027 11.7647 10.5416 11.4133C9.45688 11.0772 8.63952 10.6036 8.08952 9.99245C7.53952 9.38134 7.26452 8.62509 7.26452 7.7237C7.26452 6.91398 7.52806 6.2112 8.05514 5.61536C8.58223 5.01953 9.32702 4.6605 10.2895 4.53828V2.61328H11.802V4.53828C12.5048 4.64523 13.1159 4.89349 13.6354 5.28307C14.1548 5.67266 14.552 6.18828 14.827 6.82995L13.2916 7.47161C13.0777 6.998 12.7913 6.64661 12.4322 6.41745C12.0732 6.18828 11.611 6.0737 11.0458 6.0737C10.3888 6.0737 9.8732 6.21502 9.49889 6.49766C9.12459 6.78029 8.93743 7.1737 8.93743 7.67786C8.93743 8.19731 9.14368 8.62891 9.55618 8.97266C9.96868 9.31641 10.809 9.68689 12.077 10.0841C13.1312 10.4202 13.918 10.8977 14.4374 11.5164C14.9569 12.1352 15.2166 12.9258 15.2166 13.8883C15.2166 14.8813 14.9301 15.6834 14.3572 16.2945C13.7843 16.9056 12.9326 17.2952 11.802 17.4633V19.3883H10.2895Z" fill="#949494"/>
</svg>
