<svg width="22" height="22" viewBox="0 0 22 22" fill="none" xmlns="http://www.w3.org/2000/svg">
<path d="M8.6167 20.4882L8.13545 17.509C7.891 17.4173 7.62746 17.2913 7.34482 17.1309C7.06218 16.9704 6.82156 16.8062 6.62295 16.6382L3.82712 17.9444L1.39795 13.6361L3.96462 11.7798C3.93406 11.6729 3.91496 11.543 3.90732 11.3902C3.89968 11.2375 3.89587 11.1076 3.89587 11.0007C3.89587 10.8937 3.89968 10.7638 3.90732 10.6111C3.91496 10.4583 3.93406 10.3284 3.96462 10.2215L1.39795 8.34232L3.82712 4.07982L6.64587 5.36315C6.84448 5.1951 7.08128 5.03468 7.35628 4.8819C7.63128 4.72912 7.891 4.61454 8.13545 4.53815L8.6167 1.49023H13.3834L13.8646 4.51523C14.1091 4.6069 14.3726 4.7253 14.6552 4.87044C14.9379 5.01558 15.1785 5.17982 15.3771 5.36315L18.1729 4.07982L20.6021 8.34232L18.0354 10.1757C18.0507 10.2979 18.066 10.4354 18.0813 10.5882C18.0966 10.7409 18.1042 10.8784 18.1042 11.0007C18.1042 11.1229 18.0966 11.2566 18.0813 11.4017C18.066 11.5468 18.0507 11.6805 18.0354 11.8027L20.6021 13.6361L18.1729 17.9444L15.3542 16.6382C15.1556 16.8062 14.9226 16.9743 14.6552 17.1423C14.3879 17.3104 14.1243 17.4326 13.8646 17.509L13.3834 20.4882H8.6167ZM10.9771 13.9798C11.8021 13.9798 12.5049 13.6895 13.0854 13.109C13.666 12.5284 13.9563 11.8257 13.9563 11.0007C13.9563 10.1757 13.666 9.47287 13.0854 8.89232C12.5049 8.31176 11.8021 8.02148 10.9771 8.02148C10.1521 8.02148 9.44934 8.31176 8.86878 8.89232C8.28823 9.47287 7.99795 10.1757 7.99795 11.0007C7.99795 11.8257 8.28823 12.5284 8.86878 13.109C9.44934 13.6895 10.1521 13.9798 10.9771 13.9798ZM10.9771 12.6048C10.5188 12.6048 10.1368 12.4482 9.83128 12.135C9.52573 11.8218 9.37295 11.4437 9.37295 11.0007C9.37295 10.5576 9.52573 10.1795 9.83128 9.86628C10.1368 9.55308 10.5188 9.39648 10.9771 9.39648C11.4202 9.39648 11.7983 9.55308 12.1115 9.86628C12.4247 10.1795 12.5813 10.5576 12.5813 11.0007C12.5813 11.4437 12.4247 11.8218 12.1115 12.135C11.7983 12.4482 11.4202 12.6048 10.9771 12.6048ZM10.1063 18.6777H11.8938L12.2146 16.1111C12.7341 15.9888 13.2268 15.7979 13.6927 15.5382C14.1587 15.2784 14.575 14.9576 14.9417 14.5757L17.3709 15.6298L18.1729 14.1402L16.0417 12.5819C16.1028 12.3222 16.1525 12.0625 16.1907 11.8027C16.2289 11.543 16.2479 11.2757 16.2479 11.0007C16.2479 10.7257 16.2327 10.4583 16.2021 10.1986C16.1716 9.93885 16.1181 9.67912 16.0417 9.4194L18.1729 7.86107L17.3709 6.37148L14.9417 7.42565C14.5903 7.01315 14.1854 6.66558 13.7271 6.38294C13.2688 6.1003 12.7646 5.92843 12.2146 5.86732L11.8938 3.32357H10.1063L9.78545 5.86732C9.25073 5.95898 8.75038 6.14232 8.28441 6.41732C7.81844 6.69232 7.40212 7.02843 7.03545 7.42565L4.6292 6.37148L3.82712 7.86107L5.93545 9.39648C5.87434 9.67148 5.82469 9.93885 5.78649 10.1986C5.7483 10.4583 5.7292 10.7257 5.7292 11.0007C5.7292 11.2757 5.7483 11.5468 5.78649 11.8142C5.82469 12.0816 5.87434 12.3451 5.93545 12.6048L3.82712 14.1402L4.6292 15.6298L7.03545 14.5757C7.41739 14.9576 7.84135 15.2822 8.30732 15.5496C8.7733 15.817 9.26601 16.0118 9.78545 16.134L10.1063 18.6777Z" fill="#949494"/>
</svg>
