<svg width="22" height="22" viewBox="0 0 22 22" fill="none" xmlns="http://www.w3.org/2000/svg">
<path d="M4.58252 3.58008C3.06369 3.58008 1.83252 4.81125 1.83252 6.33008V15.2676C1.83252 16.9129 3.16636 18.2468 4.81169 18.2468H17.1867C18.832 18.2468 20.1658 16.9129 20.1658 15.2676V8.16341C20.1658 7.65714 19.7554 7.24675 19.2492 7.24675H18.3325V4.49675C18.3325 3.99047 17.9221 3.58008 17.4158 3.58008H4.58252ZM4.58252 5.41341H16.4992V7.24675H4.58252C4.07624 7.24675 3.66585 6.83635 3.66585 6.33008C3.66585 5.8238 4.07624 5.41341 4.58252 5.41341ZM4.58252 9.08008H18.3325V15.2676C18.3325 15.9005 17.8194 16.4134 17.1867 16.4134H4.81169C4.17882 16.4134 3.66585 15.9005 3.66585 15.2676L3.67117 8.91884C3.67117 8.91884 3.99934 9.08292 4.58252 9.08008ZM15.5825 11.8301C15.0762 11.8301 14.6658 12.2405 14.6658 12.7468C14.6658 13.253 15.0762 13.6634 15.5825 13.6634C16.0888 13.6634 16.4992 13.253 16.4992 12.7468C16.4992 12.2405 16.0888 11.8301 15.5825 11.8301Z" fill="#949494"/>
</svg>
