<svg width="22" height="22" viewBox="0 0 22 22" fill="none" xmlns="http://www.w3.org/2000/svg">
<path d="M5.40872 10.3123L11.0233 1.2373L16.6379 10.3123H5.40872ZM16.4546 20.7623C15.2323 20.7623 14.2087 20.346 13.3837 19.5133C12.5587 18.6807 12.1462 17.6609 12.1462 16.454C12.1462 15.2317 12.5587 14.2043 13.3837 13.3717C14.2087 12.539 15.2323 12.1227 16.4546 12.1227C17.6768 12.1227 18.7004 12.539 19.5254 13.3717C20.3504 14.2043 20.7629 15.2317 20.7629 16.454C20.7629 17.6762 20.3466 18.6998 19.5139 19.5248C18.6813 20.3498 17.6615 20.7623 16.4546 20.7623ZM1.99414 20.1894V12.5581H9.62539V20.1894H1.99414ZM16.4546 18.929C17.1573 18.929 17.7455 18.6883 18.2191 18.2071C18.6928 17.7258 18.9296 17.1415 18.9296 16.454C18.9296 15.7512 18.6889 15.1592 18.2077 14.6779C17.7264 14.1967 17.1421 13.9561 16.4546 13.9561C15.7518 13.9561 15.1598 14.1967 14.6785 14.6779C14.1973 15.1592 13.9566 15.7512 13.9566 16.454C13.9566 17.1567 14.1973 17.7449 14.6785 18.2186C15.1598 18.6922 15.7518 18.929 16.4546 18.929ZM3.82747 18.3561H7.81497V14.3915H3.82747V18.3561ZM8.68581 8.47897H13.3608L11.0233 4.6748L8.68581 8.47897Z" fill="#949494"/>
</svg>
