<svg width="22" height="22" viewBox="0 0 22 22" fill="none" xmlns="http://www.w3.org/2000/svg">
<path d="M20.0664 8.16406L19.1211 4.125C18.9062 3.30859 18.1758 2.75 17.3594 2.75H4.64062C3.82422 2.75 3.09375 3.30859 2.87891 4.125L1.93359 8.16406C1.71875 9.06641 1.89062 10.0547 2.49219 10.7852C2.57812 10.8711 2.66406 10.957 2.75 11.043V17.4023C2.75 18.4336 3.56641 19.25 4.59766 19.25H17.4023C18.4336 19.25 19.25 18.4336 19.25 17.4023V11.043C19.3359 10.957 19.4219 10.8711 19.5078 10.7852C20.1094 10.0547 20.3242 9.06641 20.0664 8.16406ZM17.3164 4.55469L18.3047 8.59375C18.3906 8.98047 18.3047 9.36719 18.0469 9.66797C17.918 9.79688 17.6602 10.0977 17.1875 10.0977C16.6289 10.0977 16.1562 9.625 16.1133 9.02344L15.5547 4.59766L17.3164 4.55469ZM11.9023 4.59766H13.707L14.2227 8.72266C14.2656 9.06641 14.1367 9.45312 13.9219 9.71094C13.707 9.92578 13.4062 10.0977 13.0195 10.0977C12.418 10.0977 11.9023 9.53906 11.9023 8.89453V4.59766ZM7.77734 8.72266L8.29297 4.59766H10.0977V8.89453C10.0977 9.53906 9.58203 10.0977 8.89453 10.0977C8.59375 10.0977 8.29297 9.92578 8.07812 9.71094C7.86328 9.45312 7.73438 9.06641 7.77734 8.72266ZM3.69531 8.59375L4.64062 4.59766H6.44531L5.88672 9.02344C5.84375 9.625 5.37109 10.0977 4.8125 10.0977C4.33984 10.0977 4.08203 9.79688 3.95312 9.66797C3.69531 9.36719 3.60938 8.98047 3.69531 8.59375ZM4.59766 17.4023V11.9023C4.64062 11.9023 4.72656 11.9023 4.8125 11.9023C5.58594 11.9023 6.31641 11.6016 6.83203 11.043C7.39062 11.6016 8.12109 11.9023 8.98047 11.9023C9.75391 11.9023 10.4844 11.6016 11 11.043C11.5586 11.6016 12.2891 11.9023 13.1055 11.9023C13.8789 11.9023 14.6094 11.6016 15.168 11.043C15.6836 11.6016 16.4141 11.9023 17.2305 11.9023C17.2734 11.9023 17.3594 11.9023 17.4453 11.9023V17.4023H4.59766Z" fill="#949494"/>
</svg>
