<svg width="22" height="22" viewBox="0 0 22 22" fill="none" xmlns="http://www.w3.org/2000/svg">
<path d="M8.25 12.5898C6.10156 12.5898 1.84766 13.6641 1.84766 15.8125V17.4023H14.6523V15.8125C14.6523 13.6641 10.3984 12.5898 8.25 12.5898ZM3.99609 15.5977C4.76953 15.0391 6.61719 14.4375 8.25 14.4375C9.88281 14.4375 11.7305 15.0391 12.5039 15.5977H3.99609ZM8.25 11C10.0117 11 11.4727 9.58203 11.4727 7.77734C11.4727 6.01562 10.0117 4.59766 8.25 4.59766C6.48828 4.59766 5.02734 6.01562 5.02734 7.77734C5.02734 9.58203 6.48828 11 8.25 11ZM8.25 6.40234C9.02344 6.40234 9.625 7.04688 9.625 7.77734C9.625 8.55078 9.02344 9.15234 8.25 9.15234C7.47656 9.15234 6.875 8.55078 6.875 7.77734C6.875 7.04688 7.47656 6.40234 8.25 6.40234ZM14.6953 12.6758C15.7695 13.4492 16.5 14.4375 16.5 15.8125V17.4023H20.1523V15.8125C20.1523 13.9648 16.9727 12.8906 14.6953 12.6758ZM13.75 11C15.5117 11 16.9727 9.58203 16.9727 7.77734C16.9727 6.01562 15.5117 4.59766 13.75 4.59766C13.2344 4.59766 12.8047 4.68359 12.375 4.89844C12.9336 5.71484 13.2773 6.70312 13.2773 7.77734C13.2773 8.85156 12.9336 9.88281 12.375 10.6992C12.8047 10.8711 13.2344 11 13.75 11Z" fill="#949494"/>
</svg>
