<svg width="22" height="22" viewBox="0 0 22 22" fill="none" xmlns="http://www.w3.org/2000/svg">
<path d="M6.62357 15.584C7.18885 16.1798 7.85343 16.6343 8.61732 16.9475C9.38121 17.2607 10.1757 17.4173 11.0007 17.4173C12.7882 17.4173 14.3045 16.7947 15.5496 15.5496C16.7947 14.3045 17.4173 12.7882 17.4173 11.0007C17.4173 9.21315 16.7947 7.69683 15.5496 6.45169C14.3045 5.20655 12.7882 4.58398 11.0007 4.58398V11.0007L6.62357 15.584ZM11.0007 20.1673C9.70204 20.1673 8.4951 19.9343 7.37982 19.4684C6.26454 19.0024 5.2944 18.3569 4.4694 17.5319C3.6444 16.7069 2.99891 15.7368 2.53294 14.6215C2.06697 13.5062 1.83398 12.2993 1.83398 11.0007C1.83398 9.71732 2.06697 8.51801 2.53294 7.40273C2.99891 6.28746 3.6444 5.31732 4.4694 4.49232C5.2944 3.66732 6.26454 3.01801 7.37982 2.5444C8.4951 2.07079 9.70204 1.83398 11.0007 1.83398C12.284 1.83398 13.4833 2.07079 14.5986 2.5444C15.7138 3.01801 16.684 3.66732 17.509 4.49232C18.334 5.31732 18.9833 6.28746 19.4569 7.40273C19.9305 8.51801 20.1673 9.71732 20.1673 11.0007C20.1673 12.2993 19.9305 13.5062 19.4569 14.6215C18.9833 15.7368 18.334 16.7069 17.509 17.5319C16.684 18.3569 15.7138 19.0024 14.5986 19.4684C13.4833 19.9343 12.284 20.1673 11.0007 20.1673ZM11.0007 18.7923C13.2159 18.7923 15.0684 18.0475 16.5579 16.5579C18.0475 15.0684 18.7923 13.2159 18.7923 11.0007C18.7923 8.78537 18.0475 6.93294 16.5579 5.44336C15.0684 3.95378 13.2159 3.20898 11.0007 3.20898C8.78537 3.20898 6.93294 3.95378 5.44336 5.44336C3.95378 6.93294 3.20898 8.78537 3.20898 11.0007C3.20898 13.2159 3.95378 15.0684 5.44336 16.5579C6.93294 18.0475 8.78537 18.7923 11.0007 18.7923Z" fill="black"/>
</svg>
