<svg width="22" height="22" viewBox="0 0 22 22" fill="none" xmlns="http://www.w3.org/2000/svg">
<path d="M0.871094 18.3328V16.1786C0.871094 15.6439 1.00859 15.1589 1.28359 14.7234C1.55859 14.288 1.94054 13.9634 2.42943 13.7495C3.5447 13.2606 4.54922 12.9092 5.44297 12.6953C6.33672 12.4814 7.2572 12.3745 8.20443 12.3745C9.15165 12.3745 10.0683 12.4814 10.9544 12.6953C11.8405 12.9092 12.8412 13.2606 13.9565 13.7495C14.4454 13.9634 14.8312 14.288 15.1138 14.7234C15.3964 15.1589 15.5378 15.6439 15.5378 16.1786V18.3328H0.871094ZM14.2544 12.3057C15.3086 12.428 16.3016 12.6075 17.2336 12.8443C18.1655 13.0811 18.9218 13.3523 19.5023 13.6578C20.0065 13.9481 20.4037 14.3071 20.694 14.7349C20.9843 15.1627 21.1294 15.6439 21.1294 16.1786V18.3328H16.9128V16.1786C16.9128 15.2161 16.6683 14.4255 16.1794 13.8068C15.6905 13.188 15.0489 12.6877 14.2544 12.3057ZM8.20443 10.9766C7.19609 10.9766 6.37109 10.6557 5.72943 10.0141C5.08776 9.3724 4.76693 8.5474 4.76693 7.53906C4.76693 6.53073 5.08776 5.70573 5.72943 5.06406C6.37109 4.4224 7.19609 4.10156 8.20443 4.10156C9.21276 4.10156 10.0378 4.4224 10.6794 5.06406C11.3211 5.70573 11.6419 6.53073 11.6419 7.53906C11.6419 8.5474 11.3211 9.3724 10.6794 10.0141C10.0378 10.6557 9.21276 10.9766 8.20443 10.9766ZM16.4544 7.53906C16.4544 8.5474 16.1336 9.3724 15.4919 10.0141C14.8503 10.6557 14.0253 10.9766 13.0169 10.9766C12.8489 10.9766 12.6617 10.9651 12.4555 10.9422C12.2492 10.9193 12.0621 10.8773 11.894 10.8161C12.2607 10.4342 12.5395 9.96441 12.7305 9.40677C12.9214 8.84913 13.0169 8.22656 13.0169 7.53906C13.0169 6.85156 12.9214 6.24427 12.7305 5.71719C12.5395 5.1901 12.2607 4.70503 11.894 4.26198C12.0621 4.21615 12.2492 4.17795 12.4555 4.1474C12.6617 4.11684 12.8489 4.10156 13.0169 4.10156C14.0253 4.10156 14.8503 4.4224 15.4919 5.06406C16.1336 5.70573 16.4544 6.53073 16.4544 7.53906ZM2.24609 16.9578H14.1628V16.1786C14.1628 15.9342 14.0902 15.6974 13.9451 15.4682C13.7999 15.2391 13.6204 15.0786 13.4065 14.987C12.3065 14.4981 11.3822 14.1696 10.6336 14.0016C9.88498 13.8335 9.07526 13.7495 8.20443 13.7495C7.33359 13.7495 6.52005 13.8335 5.7638 14.0016C5.00755 14.1696 4.07943 14.4981 2.97943 14.987C2.76554 15.0786 2.58984 15.2391 2.45234 15.4682C2.31484 15.6974 2.24609 15.9342 2.24609 16.1786V16.9578ZM8.20443 9.60156C8.80026 9.60156 9.29297 9.40677 9.68255 9.01719C10.0721 8.6276 10.2669 8.1349 10.2669 7.53906C10.2669 6.94323 10.0721 6.45052 9.68255 6.06094C9.29297 5.67135 8.80026 5.47656 8.20443 5.47656C7.60859 5.47656 7.11589 5.67135 6.7263 6.06094C6.33672 6.45052 6.14193 6.94323 6.14193 7.53906C6.14193 8.1349 6.33672 8.6276 6.7263 9.01719C7.11589 9.40677 7.60859 9.60156 8.20443 9.60156Z" fill="#6B6B6B"/>
</svg>
