<svg width="16" height="16" viewBox="0 0 16 16" fill="none" xmlns="http://www.w3.org/2000/svg">
<path d="M8 14.0117C9.24219 14.0117 10.3672 13.6602 11.375 12.957C12.4062 12.2305 13.1445 11.3047 13.5898 10.1797C12.8867 9.61719 11.9258 9.33594 10.707 9.33594C10.0273 9.33594 9.30078 9.48828 8.52734 9.79297C7.77734 10.0742 7.40234 10.4492 7.40234 10.918V13.9766C7.54297 14 7.74219 14.0117 8 14.0117ZM6.20703 10.918C6.20703 10.0977 6.67578 9.42969 7.61328 8.91406C7.02734 8.79688 6.55859 8.73828 6.20703 8.73828C5.57422 8.73828 4.85938 8.85547 4.0625 9.08984C3.26562 9.30078 2.69141 9.60547 2.33984 10.0039C2.66797 10.8945 3.17188 11.668 3.85156 12.3242C4.53125 12.9805 5.31641 13.4492 6.20703 13.7305V10.918ZM7.4375 4.58984C7.10938 4.23828 6.69922 4.0625 6.20703 4.0625C5.71484 4.0625 5.29297 4.23828 4.94141 4.58984C4.58984 4.94141 4.41406 5.36328 4.41406 5.85547C4.41406 6.34766 4.58984 6.76953 4.94141 7.12109C5.29297 7.44922 5.71484 7.61328 6.20703 7.61328C6.69922 7.61328 7.10938 7.44922 7.4375 7.12109C7.78906 6.76953 7.96484 6.34766 7.96484 5.85547C7.96484 5.36328 7.78906 4.94141 7.4375 4.58984ZM11.7266 5.67969C11.4453 5.39844 11.1055 5.25781 10.707 5.25781C10.3086 5.25781 9.96875 5.39844 9.6875 5.67969C9.40625 5.96094 9.26562 6.30078 9.26562 6.69922C9.26562 7.09766 9.40625 7.4375 9.6875 7.71875C9.96875 8 10.3086 8.14062 10.707 8.14062C11.1055 8.14062 11.4453 8 11.7266 7.71875C12.0078 7.4375 12.1484 7.09766 12.1484 6.69922C12.1484 6.30078 12.0078 5.96094 11.7266 5.67969ZM8 0.511719C10.0625 0.511719 11.8203 1.25 13.2734 2.72656C14.75 4.17969 15.4883 5.9375 15.4883 8C15.4883 10.0625 14.75 11.832 13.2734 13.3086C11.8203 14.7617 10.0625 15.4883 8 15.4883C5.91406 15.4883 4.13281 14.7617 2.65625 13.3086C1.20312 11.832 0.476562 10.0625 0.476562 8C0.476562 5.9375 1.20312 4.17969 2.65625 2.72656C4.13281 1.25 5.91406 0.511719 8 0.511719Z" fill="black"/>
</svg>
